<svg width="426" height="436" xmlns="http://www.w3.org/2000/svg" xmlns:xlink="http://www.w3.org/1999/xlink" xml:space="preserve" overflow="hidden"><g transform="translate(-1778 -169)"><g><path d="M1925 387.5C1925 350.773 1954.77 321 1991.5 321 2028.23 321 2058 350.773 2058 387.5 2058 424.227 2028.23 454 1991.5 454 1954.77 454 1925 424.227 1925 387.5Z" stroke="#595959" stroke-width="18.3333" stroke-linecap="butt" stroke-linejoin="miter" stroke-miterlimit="8" stroke-opacity="1" fill="none" fill-rule="evenodd"/><path d="M2094.2 337.283C2083.5 310.996 2096.14 281.017 2122.43 270.322 2148.72 259.627 2178.7 272.267 2189.39 298.553 2200.09 324.84 2187.45 354.819 2161.16 365.514 2134.87 376.209 2104.89 363.569 2094.2 337.283Z" stroke="#595959" stroke-width="18.3333" stroke-linecap="butt" stroke-linejoin="miter" stroke-miterlimit="8" stroke-opacity="1" fill="none" fill-rule="evenodd"/><path d="M2091.44 493.194C2085.78 465.387 2103.73 438.25 2131.53 432.583 2159.34 426.916 2186.48 444.864 2192.14 472.671 2197.81 500.479 2179.86 527.615 2152.06 533.282 2124.25 538.95 2097.11 521.002 2091.44 493.194Z" stroke="#595959" stroke-width="18.3333" stroke-linecap="butt" stroke-linejoin="miter" stroke-miterlimit="8" stroke-opacity="1" fill="none" fill-rule="evenodd"/><path d="M1791 309.5C1791 281.057 1814.06 258 1842.5 258 1870.94 258 1894 281.057 1894 309.5 1894 337.943 1870.94 361 1842.5 361 1814.06 361 1791 337.943 1791 309.5Z" stroke="#595959" stroke-width="18.3333" stroke-linecap="butt" stroke-linejoin="miter" stroke-miterlimit="8" stroke-opacity="1" fill="none" fill-rule="evenodd"/><path d="M1797.16 504.94C1783.61 480.003 1792.85 448.806 1817.78 435.259 1842.72 421.712 1873.92 430.945 1887.46 455.882 1901.01 480.819 1891.78 512.016 1866.84 525.563 1841.9 539.11 1810.71 529.876 1797.16 504.94Z" stroke="#595959" stroke-width="18.3333" stroke-linecap="butt" stroke-linejoin="miter" stroke-miterlimit="8" stroke-opacity="1" fill="none" fill-rule="evenodd"/><path d="M1941 232.5C1941 204.057 1963.83 181 1992 181 2020.17 181 2043 204.057 2043 232.5 2043 260.943 2020.17 284 1992 284 1963.83 284 1941 260.943 1941 232.5Z" stroke="#595959" stroke-width="18.3333" stroke-linecap="butt" stroke-linejoin="miter" stroke-miterlimit="8" stroke-opacity="1" fill="none" fill-rule="evenodd"/><path d="M1929.93 360.477 1889 334" stroke="#595959" stroke-width="18.3333" stroke-linecap="butt" stroke-linejoin="miter" stroke-miterlimit="8" stroke-opacity="1" fill="none" fill-rule="evenodd"/><path d="M0 0 0.000360892 37.3137" stroke="#595959" stroke-width="18.3333" stroke-linecap="butt" stroke-linejoin="miter" stroke-miterlimit="8" stroke-opacity="1" fill="none" fill-rule="evenodd" transform="matrix(1 0 0 -1 1992 321.314)"/><path d="M0 0 39.1424 23.0751" stroke="#595959" stroke-width="18.3333" stroke-linecap="butt" stroke-linejoin="miter" stroke-miterlimit="8" stroke-opacity="1" fill="none" fill-rule="evenodd" transform="matrix(1 0 0 -1 2055 360.075)"/><path d="M2046 421 2098.81 454.521" stroke="#595959" stroke-width="18.3333" stroke-linecap="butt" stroke-linejoin="miter" stroke-miterlimit="8" stroke-opacity="1" fill="none" fill-rule="evenodd"/><path d="M0 0 42.4781 34.8167" stroke="#595959" stroke-width="18.3333" stroke-linecap="butt" stroke-linejoin="miter" stroke-miterlimit="8" stroke-opacity="1" fill="none" fill-rule="evenodd" transform="matrix(-1 0 0 1 1929.48 421)"/><path d="M1941 542.5C1941 514.057 1963.83 491 1992 491 2020.17 491 2043 514.057 2043 542.5 2043 570.943 2020.17 594 1992 594 1963.83 594 1941 570.943 1941 542.5Z" stroke="#595959" stroke-width="18.3333" stroke-linecap="butt" stroke-linejoin="miter" stroke-miterlimit="8" stroke-opacity="1" fill="none" fill-rule="evenodd"/><path d="M1992 454 1992 490.767" stroke="#595959" stroke-width="18.3333" stroke-linecap="butt" stroke-linejoin="miter" stroke-miterlimit="8" stroke-opacity="1" fill="none" fill-rule="evenodd"/></g></g></svg>